<svg width="30" height="30" viewBox="0 0 30 30" fill="none" xmlns="http://www.w3.org/2000/svg">
<rect width="30" height="30" rx="15" fill="#FD6A7E" fill-opacity="0.1"/>
<path d="M22.3636 15.8333V24.1667C22.3636 24.6667 22.0364 25 21.5455 25H8.45455C7.96364 25 7.63636 24.6667 7.63636 24.1667V15.8333H14.1818V23.3333H15.8182V15.8333H22.3636ZM14.1818 10H6.81818C6.32727 10 6 10.3333 6 10.8333V13.3333C6 13.8333 6.32727 14.1667 6.81818 14.1667H14.1818V10ZM23.1818 10H15.8182V14.1667H23.1818C23.6727 14.1667 24 13.8333 24 13.3333V10.8333C24 10.3333 23.6727 10 23.1818 10ZM20.8091 9.08333L20.8909 8.75C21.2182 7.91667 21.1364 6.91667 20.6455 6.16667C20.1545 5.41667 19.2545 5 18.3545 5C17.2091 5 16.2273 5.66667 15.8182 6.75L14.1818 10.8333H18.2727C19.3364 10.8333 20.4 10.1667 20.8091 9.08333ZM17.3727 7.33333C17.5364 6.91667 17.9455 6.66667 18.3545 6.66667C18.6818 6.66667 19.0091 6.83333 19.2545 7.16667C19.4182 7.5 19.5 7.83333 19.3364 8.16667L19.2545 8.5C19.0909 8.91667 18.6818 9.16667 18.2727 9.16667H16.6364L17.3727 7.33333ZM14.1818 6.75C13.7727 5.66667 12.7091 5 11.6455 5C10.7455 5 9.84545 5.41667 9.35455 6.25C8.86364 7 8.78182 7.91667 9.10909 8.83333L9.19091 9.16667C9.6 10.1667 10.6636 10.8333 11.7273 10.8333H15.7364L14.1818 6.75ZM12.6273 7.33333L13.3636 9.16667H11.7273C11.3182 9.16667 10.9091 8.91667 10.7455 8.5L10.5818 8.16667C10.5 7.83333 10.5 7.41667 10.7455 7.16667C10.9091 6.83333 11.2364 6.66667 11.6455 6.66667C12.0545 6.66667 12.4636 6.91667 12.6273 7.33333Z" fill="#FD6A7E"/>
</svg>
