<svg width="30" height="30" viewBox="0 0 30 30" fill="none" xmlns="http://www.w3.org/2000/svg">
<rect width="30" height="30" rx="15" fill="#FFB800" fill-opacity="0.1"/>
<path d="M24.2483 21.4701L22.5983 21.8601C22.2283 21.9501 21.9383 22.2301 21.8583 22.6001L21.5083 24.0701C21.3183 24.8701 20.2983 25.1201 19.7683 24.4901L16.7783 21.0501C16.5383 20.7701 16.6683 20.3301 17.0283 20.2401C18.7983 19.8101 20.3883 18.8201 21.5583 17.4101C21.7483 17.1801 22.0883 17.1501 22.2983 17.3601L24.5183 19.5801C25.2783 20.3401 25.0083 21.2901 24.2483 21.4701Z" fill="#FFB800"/>
<path d="M5.69919 21.4701L7.34919 21.8601C7.71919 21.9501 8.00919 22.2301 8.08919 22.6001L8.43919 24.0701C8.62919 24.8701 9.64919 25.1201 10.1792 24.4901L13.1692 21.0501C13.4092 20.7701 13.2792 20.3301 12.9192 20.2401C11.1492 19.8101 9.55919 18.8201 8.38919 17.4101C8.19919 17.1801 7.85919 17.1501 7.64919 17.3601L5.42919 19.5801C4.66919 20.3401 4.93919 21.2901 5.69919 21.4701Z" fill="#FFB800"/>
<path d="M15 5C11.13 5 8 8.13 8 12C8 13.45 8.43 14.78 9.17 15.89C10.25 17.49 11.96 18.62 13.95 18.91C14.29 18.97 14.64 19 15 19C15.36 19 15.71 18.97 16.05 18.91C18.04 18.62 19.75 17.49 20.83 15.89C21.57 14.78 22 13.45 22 12C22 8.13 18.87 5 15 5ZM18.06 11.78L17.23 12.61C17.09 12.75 17.01 13.02 17.06 13.22L17.3 14.25C17.49 15.06 17.06 15.38 16.34 14.95L15.34 14.36C15.16 14.25 14.86 14.25 14.68 14.36L13.68 14.95C12.96 15.37 12.53 15.06 12.72 14.25L12.96 13.22C13 13.03 12.93 12.75 12.79 12.61L11.94 11.78C11.45 11.29 11.61 10.8 12.29 10.69L13.36 10.51C13.54 10.48 13.75 10.32 13.83 10.16L14.42 8.98C14.74 8.34 15.26 8.34 15.58 8.98L16.17 10.16C16.25 10.32 16.46 10.48 16.65 10.51L17.72 10.69C18.39 10.8 18.55 11.29 18.06 11.78Z" fill="#FFB800"/>
</svg>
